#N canvas 60 23 912 671 12;
#N canvas 9 23 553 419 filty 0;
#X obj 174 229 delread4~ \$0-del;
#X obj 46 163 pack 0 100;
#X obj 46 186 line~;
#X obj 28 214 *~;
#X obj 28 237 clip~ -1 1;
#X obj 174 294 outlet~;
#X obj 28 18 inlet~;
#X obj 123 18 inlet;
#X obj 79 18 inlet;
#X obj 28 260 delwrite~ \$0-del 50;
#X obj 174 137 samplerate~;
#X floatatom 174 54 5 0 0 0 - - -;
#X obj 174 203 / 1000;
#X obj 462 47 block~ 1;
#X obj 184 110 loadbang;
#X obj 174 180 / 1000;
#X obj 154 85 t b;
#X text 88 344 Based on: https://lists.puredata.info/pipermail/pd-list/2005-02/025916.html
;
#X connect 0 0 5 0;
#X connect 1 0 2 0;
#X connect 2 0 3 1;
#X connect 3 0 4 0;
#X connect 4 0 9 0;
#X connect 6 0 3 0;
#X connect 7 0 11 0;
#X connect 8 0 1 0;
#X connect 10 0 15 0;
#X connect 11 0 15 1;
#X connect 11 0 16 0;
#X connect 12 0 0 0;
#X connect 14 0 10 0;
#X connect 15 0 12 0;
#X connect 16 0 10 0;
#X connect 16 0 15 0;
#X restore 39 471 pd filty;
#X obj 39 519 *~ 1;
#X obj 67 97 vsl 15 60 0 1 0 1 empty empty empty 0 -9 0 10 -262144
-1 -1 400 1;
#X obj 449 14 inlet~;
#X obj 500 14 inlet;
#X obj 544 14 inlet;
#X obj 39 628 outlet~;
#N canvas 36 109 553 419 filty 0;
#X obj 46 163 pack 0 100;
#X obj 46 186 line~;
#X obj 28 214 *~;
#X obj 28 237 clip~ -1 1;
#X obj 174 294 outlet~;
#X obj 28 18 inlet~;
#X obj 123 18 inlet;
#X obj 79 18 inlet;
#X obj 174 137 samplerate~;
#X floatatom 174 54 5 0 0 0 - - -;
#X obj 174 203 / 1000;
#X obj 462 47 block~ 1;
#X obj 184 110 loadbang;
#X obj 174 180 / 1000;
#X obj 154 85 t b;
#X text 88 344 Based on: https://lists.puredata.info/pipermail/pd-list/2005-02/025916.html
;
#X obj 28 260 delwrite~ \$0-del2 50;
#X obj 174 229 delread4~ \$0-del2;
#X connect 0 0 1 0;
#X connect 1 0 2 1;
#X connect 2 0 3 0;
#X connect 3 0 16 0;
#X connect 5 0 2 0;
#X connect 6 0 9 0;
#X connect 7 0 0 0;
#X connect 8 0 13 0;
#X connect 9 0 13 1;
#X connect 9 0 14 0;
#X connect 10 0 17 0;
#X connect 12 0 8 0;
#X connect 13 0 10 0;
#X connect 14 0 8 0;
#X connect 14 0 13 0;
#X connect 17 0 4 0;
#X restore 139 471 pd filty;
#X obj 139 519 *~ 1;
#X obj 89 97 vsl 15 60 0 1 0 1 empty empty empty 0 -9 0 10 -262144
-1 -1 2200 1;
#N canvas 9 23 553 419 filty 0;
#X obj 46 163 pack 0 100;
#X obj 46 186 line~;
#X obj 28 214 *~;
#X obj 28 237 clip~ -1 1;
#X obj 174 294 outlet~;
#X obj 28 18 inlet~;
#X obj 123 18 inlet;
#X obj 79 18 inlet;
#X obj 174 137 samplerate~;
#X floatatom 174 54 5 0 0 0 - - -;
#X obj 174 203 / 1000;
#X obj 462 47 block~ 1;
#X obj 184 110 loadbang;
#X obj 174 180 / 1000;
#X obj 154 85 t b;
#X text 88 344 Based on: https://lists.puredata.info/pipermail/pd-list/2005-02/025916.html
;
#X obj 174 229 delread4~ \$0-del3;
#X obj 28 260 delwrite~ \$0-del3 50;
#X connect 0 0 1 0;
#X connect 1 0 2 1;
#X connect 2 0 3 0;
#X connect 3 0 17 0;
#X connect 5 0 2 0;
#X connect 6 0 9 0;
#X connect 7 0 0 0;
#X connect 8 0 13 0;
#X connect 9 0 13 1;
#X connect 9 0 14 0;
#X connect 10 0 16 0;
#X connect 12 0 8 0;
#X connect 13 0 10 0;
#X connect 14 0 8 0;
#X connect 14 0 13 0;
#X connect 16 0 4 0;
#X restore 269 471 pd filty;
#X obj 269 519 *~ 1;
#X obj 111 97 vsl 15 60 0 1 0 1 empty empty empty 0 -9 0 10 -262144
-1 -1 3500 1;
#N canvas 9 23 553 419 filty 0;
#X obj 46 163 pack 0 100;
#X obj 46 186 line~;
#X obj 28 214 *~;
#X obj 28 237 clip~ -1 1;
#X obj 174 294 outlet~;
#X obj 28 18 inlet~;
#X obj 123 18 inlet;
#X obj 79 18 inlet;
#X obj 174 137 samplerate~;
#X floatatom 174 54 5 0 0 0 - - -;
#X obj 174 203 / 1000;
#X obj 462 47 block~ 1;
#X obj 184 110 loadbang;
#X obj 174 180 / 1000;
#X obj 154 85 t b;
#X text 88 344 Based on: https://lists.puredata.info/pipermail/pd-list/2005-02/025916.html
;
#X obj 28 260 delwrite~ \$0-del4 50;
#X obj 174 229 delread4~ \$0-del4;
#X connect 0 0 1 0;
#X connect 1 0 2 1;
#X connect 2 0 3 0;
#X connect 3 0 16 0;
#X connect 5 0 2 0;
#X connect 6 0 9 0;
#X connect 7 0 0 0;
#X connect 8 0 13 0;
#X connect 9 0 13 1;
#X connect 9 0 14 0;
#X connect 10 0 17 0;
#X connect 12 0 8 0;
#X connect 13 0 10 0;
#X connect 14 0 8 0;
#X connect 14 0 13 0;
#X connect 17 0 4 0;
#X restore 389 471 pd filty;
#X obj 389 519 *~ 1;
#X obj 133 97 vsl 15 60 0 1 0 1 empty empty empty 0 -9 0 10 -262144
-1 -1 5500 1;
#X obj 192 441 * 0.98;
#X obj 322 441 * 1.23;
#X obj 442 441 * 2.4;
#X floatatom 215 170 5 0 0 0 - - -;
#X floatatom 215 150 5 0 0 0 - - -;
#X floatatom 215 130 5 0 0 0 - - -;
#X msg 489 280 2;
#X msg 521 280 4;
#X msg 553 280 8;
#X obj 215 98 hradio 15 1 0 4 empty empty empty 0 -8 0 10 -262144 -1
-1 0;
#X msg 559 320 0.97;
#X msg 598 320 1.21;
#X msg 637 320 2.37;
#X obj 197 418 t b;
#X obj 328 418 t b;
#X obj 448 418 t b;
#X msg 599 280 3;
#X msg 631 280 4;
#X msg 663 280 5;
#X msg 689 320 3;
#X msg 728 320 7;
#X msg 767 320 11;
#X obj 569 239 sel 0 1 2 3, f 35;
#X text 211 115 factors;
#X text 88 78 levels;
#X obj 183 97 vsl 15 60 20 20000 1 1 empty empty freq 0 -9 0 10 -262144
-1 -1 0 1;
#X obj 163 97 vsl 15 60 0 1 0 1 empty empty in 0 -9 0 10 -262144 -1
-1 5900 1;
#X text 213 79 presets;
#X connect 0 0 1 0;
#X connect 1 0 6 0;
#X connect 2 0 1 1;
#X connect 3 0 0 0;
#X connect 3 0 7 0;
#X connect 3 0 10 0;
#X connect 3 0 13 0;
#X connect 4 0 42 0;
#X connect 5 0 41 0;
#X connect 7 0 8 0;
#X connect 8 0 6 0;
#X connect 9 0 8 1;
#X connect 10 0 11 0;
#X connect 11 0 6 0;
#X connect 12 0 11 1;
#X connect 13 0 14 0;
#X connect 14 0 6 0;
#X connect 15 0 14 1;
#X connect 16 0 7 2;
#X connect 17 0 10 2;
#X connect 18 0 13 2;
#X connect 19 0 18 1;
#X connect 19 0 31 0;
#X connect 20 0 17 1;
#X connect 20 0 30 0;
#X connect 21 0 16 1;
#X connect 21 0 29 0;
#X connect 22 0 21 0;
#X connect 23 0 20 0;
#X connect 24 0 19 0;
#X connect 25 0 38 0;
#X connect 26 0 21 0;
#X connect 27 0 20 0;
#X connect 28 0 19 0;
#X connect 29 0 16 0;
#X connect 30 0 17 0;
#X connect 31 0 18 0;
#X connect 32 0 21 0;
#X connect 33 0 20 0;
#X connect 34 0 19 0;
#X connect 35 0 21 0;
#X connect 36 0 20 0;
#X connect 37 0 19 0;
#X connect 38 0 22 0;
#X connect 38 0 23 0;
#X connect 38 0 24 0;
#X connect 38 1 26 0;
#X connect 38 1 27 0;
#X connect 38 1 28 0;
#X connect 38 2 32 0;
#X connect 38 2 33 0;
#X connect 38 2 34 0;
#X connect 38 3 35 0;
#X connect 38 3 36 0;
#X connect 38 3 37 0;
#X connect 41 0 0 2;
#X connect 41 0 16 0;
#X connect 41 0 17 0;
#X connect 41 0 18 0;
#X connect 42 0 0 1;
#X connect 42 0 7 1;
#X connect 42 0 10 1;
#X connect 42 0 13 1;
#X coords 0 -1 1 1 224 132 1 60 60;
