#N canvas 0 23 468 499 12;
#X floatatom 225 288 5 0 0 0 - - -;
#X obj 9 23 inlet~;
#X obj 225 23 inlet;
#X obj 157 465 outlet~;
#X obj 63 224 *~ 1;
#X obj 326 23 inlet;
#X obj 157 439 +~;
#X obj 157 346 delread4~ \$0-del1;
#X obj 376 23 inlet;
#X obj 43 86 *~ 1;
#X text 77 87 feedback;
#X obj 9 121 +~;
#X obj 157 399 *~;
#X floatatom 178 373 5 0 0 0 - - -;
#X obj 9 159 delwrite~ \$0-del1 3000;
#X obj 275 23 inlet;
#X connect 0 0 7 0;
#X connect 1 0 4 0;
#X connect 1 0 11 0;
#X connect 2 0 0 0;
#X connect 4 0 6 1;
#X connect 5 0 4 1;
#X connect 6 0 3 0;
#X connect 6 0 9 0;
#X connect 7 0 12 0;
#X connect 8 0 9 1;
#X connect 9 0 11 1;
#X connect 11 0 14 0;
#X connect 12 0 6 0;
#X connect 13 0 12 1;
#X connect 15 0 13 0;
