#N canvas 47 31 766 574 12;
#X obj 9 23 inlet~;
#X obj 175 23 inlet;
#X obj 157 515 outlet~;
#X obj 108 207 *~ 1;
#X obj 225 23 inlet;
#X obj 157 489 +~;
#X obj 9 121 +~;
#X obj 175 207 rzero_rev~;
#X obj 175 240 rpole~;
#X obj 175 277 rzero_rev~;
#X obj 175 310 rpole~;
#X obj 175 347 rzero_rev~;
#X obj 175 380 rpole~;
#X obj 175 417 rzero_rev~;
#X obj 175 450 rpole~;
#X obj 275 81 phasor~ 0.3;
#X obj 275 124 expr~ abs($v1 - 0.5);
#X floatatom 275 59 5 0 0 0 - - -;
#X text 309 437 Based on: http://msp.ucsd.edu/techniques/v0.11/book-html/node161.html
;
#X floatatom 468 152 5 0 0 0 - - -;
#X text 420 124 tri;
#X msg 468 92 0.6;
#X msg 508 92 2;
#X msg 548 92 3;
#X obj 275 177 expr~ $v2 - $v3 * $v1 * $v1;
#X floatatom 588 152 5 0 0 0 - - -;
#X msg 628 92 2;
#X msg 668 92 3;
#X msg 588 92 0.97;
#X obj 468 23 loadbang;
#X obj 275 201 clip~ -1 1;
#X text 352 202 safety;
#X obj 335 23 inlet;
#X obj 385 23 inlet;
#X connect 0 0 3 0;
#X connect 0 0 6 0;
#X connect 1 0 17 0;
#X connect 3 0 5 0;
#X connect 4 0 3 1;
#X connect 5 0 2 0;
#X connect 6 0 7 0;
#X connect 7 0 8 0;
#X connect 8 0 9 0;
#X connect 9 0 10 0;
#X connect 10 0 11 0;
#X connect 11 0 12 0;
#X connect 12 0 13 0;
#X connect 13 0 14 0;
#X connect 14 0 5 1;
#X connect 15 0 16 0;
#X connect 16 0 24 0;
#X connect 17 0 15 0;
#X connect 19 0 24 1;
#X connect 21 0 19 0;
#X connect 22 0 19 0;
#X connect 23 0 19 0;
#X connect 24 0 30 0;
#X connect 25 0 24 2;
#X connect 26 0 25 0;
#X connect 27 0 25 0;
#X connect 28 0 25 0;
#X connect 29 0 21 0;
#X connect 29 0 28 0;
#X connect 30 0 7 1;
#X connect 30 0 8 1;
#X connect 30 0 9 1;
#X connect 30 0 10 1;
#X connect 30 0 11 1;
#X connect 30 0 12 1;
#X connect 30 0 13 1;
#X connect 30 0 14 1;
#X connect 32 0 19 0;
#X connect 33 0 25 0;
