#N canvas 6 47 517 570 12;
#X obj 9 23 inlet~;
#X obj 175 23 inlet;
#X obj 157 515 outlet~;
#X obj 108 207 *~ 1;
#X obj 225 23 inlet;
#X obj 157 489 +~;
#X obj 9 121 +~;
#X obj 175 207 rzero_rev~;
#X obj 175 240 rpole~;
#X obj 175 277 rzero_rev~;
#X obj 175 310 rpole~;
#X obj 175 347 rzero_rev~;
#X obj 175 380 rpole~;
#X obj 175 417 rzero_rev~;
#X obj 175 450 rpole~;
#X obj 275 131 phasor~ 0.3;
#X obj 275 154 expr~ abs($v1 - 0.5);
#X obj 275 177 expr~ 0.97 - 0.6 * $v1 * $v1;
#X floatatom 275 104 5 0 0 0 - - -;
#X text 309 437 Based on: http://msp.ucsd.edu/techniques/v0.11/book-html/node161.html
;
#X connect 0 0 3 0;
#X connect 0 0 6 0;
#X connect 1 0 18 0;
#X connect 3 0 5 0;
#X connect 4 0 3 1;
#X connect 5 0 2 0;
#X connect 6 0 7 0;
#X connect 7 0 8 0;
#X connect 8 0 9 0;
#X connect 9 0 10 0;
#X connect 10 0 11 0;
#X connect 11 0 12 0;
#X connect 12 0 13 0;
#X connect 13 0 14 0;
#X connect 14 0 5 1;
#X connect 15 0 16 0;
#X connect 16 0 17 0;
#X connect 17 0 7 1;
#X connect 17 0 8 1;
#X connect 17 0 9 1;
#X connect 17 0 10 1;
#X connect 17 0 11 1;
#X connect 17 0 12 1;
#X connect 17 0 13 1;
#X connect 17 0 14 1;
#X connect 18 0 15 0;
