#N canvas 10 23 501 390 12;
#X obj 28 116 *~;
#X obj 28 162 hip~ 10;
#X obj 28 185 clip~ -0.2 0.2;
#X obj 28 228 +~;
#X obj 28 251 hip~ 5;
#X obj 93 47 * 0.01;
#X obj 93 70 pack 0 100;
#X obj 93 93 line~;
#X obj 184 56 / 100;
#X obj 184 79 osc~ 0;
#X obj 184 102 +~ 1;
#X obj 184 125 *~;
#X obj 184 148 +~ 1.46;
#X obj 184 171 delread4~ \$0-del;
#X obj 239 79 pack 0 100;
#X obj 239 102 line~;
#X obj 317 158 pack 0 100;
#X obj 317 181 line~;
#X obj 317 214 *~;
#X obj 317 237 clip~ -1 1;
#X obj 317 135 * 0.01;
#X obj 28 139 cos~;
#X obj 28 320 outlet~;
#X obj 28 18 inlet~;
#X obj 93 18 inlet;
#X obj 184 18 inlet;
#X obj 239 18 inlet;
#X obj 317 260 delwrite~ \$0-del 2000;
#X obj 317 18 inlet;
#X connect 0 0 21 0;
#X connect 1 0 2 0;
#X connect 2 0 3 0;
#X connect 3 0 4 0;
#X connect 4 0 18 0;
#X connect 4 0 22 0;
#X connect 5 0 6 0;
#X connect 6 0 7 0;
#X connect 7 0 0 1;
#X connect 8 0 9 0;
#X connect 9 0 10 0;
#X connect 10 0 11 0;
#X connect 11 0 12 0;
#X connect 12 0 13 0;
#X connect 13 0 3 1;
#X connect 14 0 15 0;
#X connect 15 0 11 1;
#X connect 16 0 17 0;
#X connect 17 0 18 1;
#X connect 18 0 19 0;
#X connect 19 0 27 0;
#X connect 20 0 16 0;
#X connect 21 0 1 0;
#X connect 23 0 0 0;
#X connect 24 0 5 0;
#X connect 25 0 8 0;
#X connect 26 0 14 0;
#X connect 28 0 20 0;
